<?xml version="1.0" encoding="utf-8"?>
<!-- Generator: Adobe Illustrator 23.0.2, SVG Export Plug-In . SVG Version: 6.00 Build 0)  -->
<svg version="1.1" id="Ebene_1" xmlns="http://www.w3.org/2000/svg" xmlns:xlink="http://www.w3.org/1999/xlink" x="0px" y="0px"
	 viewBox="0 0 75.2 76.5" style="enable-background:new 0 0 75.2 76.5;" xml:space="preserve">
<style type="text/css">
	.st0{clip-path:url(#SVGID_4_);fill:url(#SVGID_5_);}
	.st1{clip-path:url(#SVGID_7_);fill:url(#SVGID_8_);}
	.st2{clip-path:url(#SVGID_10_);fill:url(#SVGID_11_);}
	.st3{clip-path:url(#SVGID_13_);fill:url(#SVGID_14_);}
	.st4{clip-path:url(#SVGID_16_);fill:#E94D18;}
	.st5{clip-path:url(#SVGID_18_);fill:url(#SVGID_19_);}
	.st6{clip-path:url(#SVGID_21_);fill:url(#SVGID_22_);}
	.st7{clip-path:url(#SVGID_24_);fill:#3B3B3A;}
	.st8{clip-path:url(#SVGID_24_);fill:#FFFFFF;}
	.st9{clip-path:url(#SVGID_24_);fill:none;stroke:#3B3B3A;stroke-width:0.34;stroke-miterlimit:10;}
	.st10{clip-path:url(#SVGID_24_);fill:#F6F6F6;}
	.st11{clip-path:url(#SVGID_24_);fill:none;stroke:#3B3B3A;stroke-width:0.141;stroke-miterlimit:10;}
</style>
<g>
	<defs>
		<rect id="SVGID_1_" x="-8.3" y="-11.6" width="90.7" height="91.9"/>
	</defs>
	<clipPath id="SVGID_2_">
		<use xlink:href="#SVGID_1_"  style="overflow:visible;"/>
	</clipPath>
</g>
<g>
	<defs>
		<path id="SVGID_3_" d="M34.7,67.8L34.7,67.8C34.7,67.8,34.7,67.8,34.7,67.8L34.7,67.8z"/>
	</defs>
	<clipPath id="SVGID_4_">
		<use xlink:href="#SVGID_3_"  style="overflow:visible;"/>
	</clipPath>
	
		<linearGradient id="SVGID_5_" gradientUnits="userSpaceOnUse" x1="-242.1024" y1="204.983" x2="-241.1024" y2="204.983" gradientTransform="matrix(0.5516 -79.9779 -79.9779 -0.5516 16562.2383 -19163.9727)">
		<stop  offset="0" style="stop-color:#FFEF25"/>
		<stop  offset="1.789650e-02" style="stop-color:#FFEA20"/>
		<stop  offset="0.102" style="stop-color:#FED70E"/>
		<stop  offset="0.1886" style="stop-color:#FDCC04"/>
		<stop  offset="0.2809" style="stop-color:#FDC800"/>
		<stop  offset="0.6685" style="stop-color:#F18F34"/>
		<stop  offset="0.8876" style="stop-color:#E85F31"/>
		<stop  offset="1" style="stop-color:#E32F2C"/>
	</linearGradient>
	<polygon class="st0" points="34.7,67.8 34.7,67.8 34.7,67.8 34.7,67.8 	"/>
</g>
<g>
	<defs>
		<path id="SVGID_6_" d="M66.7,38.7c-16.5,4.5-23.6,15.1-26.5,22.5c-0.9,2.7-1.5,5-1.8,6.5l0,0c0,0,0,0,0,0c0.4,0.4,2.9,2.9,1.6,4.2
			l0.1-0.1c2.9-1.6,19.2-14.1,22.1-15.6c0,0-0.5-4.4,0.2-3.6c0.9,1,4.2,0.9,4.2,0.9c-2-0.4-3-5.1-3-5.1l2.7,1
			c-0.9-3,1.2-11.1,1.2-11.1C67.5,38.6,66.7,38.7,66.7,38.7"/>
	</defs>
	<clipPath id="SVGID_7_">
		<use xlink:href="#SVGID_6_"  style="overflow:visible;"/>
	</clipPath>
	
		<linearGradient id="SVGID_8_" gradientUnits="userSpaceOnUse" x1="-246.765" y1="202.728" x2="-245.765" y2="202.728" gradientTransform="matrix(-31.5808 -16.9045 -16.9045 31.5808 -4294.2021 -10508.4043)">
		<stop  offset="0" style="stop-color:#D9DADA"/>
		<stop  offset="1" style="stop-color:#FFFFFF"/>
	</linearGradient>
	<polygon class="st1" points="61.2,84.2 24.5,64.6 44.9,26.4 81.6,46 	"/>
</g>
<g>
	<defs>
		<path id="SVGID_9_" d="M5.8,38.6l0.9,0.2c16.3,4.5,23.3,15,26.2,22.4c0.9,2.7,1.5,5.1,1.8,6.5l0.4,0c0,0,0,0,0,0
			c-0.3-1.4-0.9-3.8-1.8-6.5c-3-7.4-10.1-17.9-26.6-22.4L5.8,38.6z"/>
	</defs>
	<clipPath id="SVGID_10_">
		<use xlink:href="#SVGID_9_"  style="overflow:visible;"/>
	</clipPath>
	
		<linearGradient id="SVGID_11_" gradientUnits="userSpaceOnUse" x1="-242.1024" y1="204.983" x2="-241.1024" y2="204.983" gradientTransform="matrix(0.5516 -79.9779 -79.9779 -0.5516 16547.8809 -19164.0703)">
		<stop  offset="0" style="stop-color:#FFEF25"/>
		<stop  offset="1.789650e-02" style="stop-color:#FFEA20"/>
		<stop  offset="0.102" style="stop-color:#FED70E"/>
		<stop  offset="0.1886" style="stop-color:#FDCC04"/>
		<stop  offset="0.2809" style="stop-color:#FDC800"/>
		<stop  offset="0.6685" style="stop-color:#F18F34"/>
		<stop  offset="0.8876" style="stop-color:#E85F31"/>
		<stop  offset="1" style="stop-color:#E32F2C"/>
	</linearGradient>
	<polygon class="st2" points="5.6,67.8 5.8,38.4 35.3,38.6 35.1,68 	"/>
</g>
<g>
	<defs>
		<path id="SVGID_12_" d="M5.6,48l3.7,0.7c0,0-1.5,3.3-3.5,3.7c0,0,2.6,0.8,4.7,0.4l-2.2,3.7c4.9,1.1,23,14.3,25,15.5
			c-1.4-1.4,1.5-4.1,1.7-4.2c0,0,0,0,0,0c-0.3-1.4-0.9-3.8-1.8-6.5c-3-7.4-10.1-17.9-26.6-22.4l-0.9-0.2C5.8,38.6,7.8,45.9,5.6,48"
			/>
	</defs>
	<clipPath id="SVGID_13_">
		<use xlink:href="#SVGID_12_"  style="overflow:visible;"/>
	</clipPath>
	
		<linearGradient id="SVGID_14_" gradientUnits="userSpaceOnUse" x1="-238.1913" y1="208.505" x2="-237.1913" y2="208.505" gradientTransform="matrix(40.0107 -8.1434 -8.1434 -40.0107 11219.417 6463.9893)">
		<stop  offset="0" style="stop-color:#D9DADA"/>
		<stop  offset="1" style="stop-color:#FFFFFF"/>
	</linearGradient>
	<polygon class="st3" points="-0.9,40 34,32.9 41.7,70.7 6.8,77.8 	"/>
</g>
<g>
	<defs>
		<rect id="SVGID_15_" x="-8.3" y="-11.6" width="90.7" height="91.9"/>
	</defs>
	<clipPath id="SVGID_16_">
		<use xlink:href="#SVGID_15_"  style="overflow:visible;"/>
	</clipPath>
	<path class="st4" d="M72.8,5.6L72.8,5.6l-26,15c-2.8-0.6-6-0.9-9.6-0.8c-0.1,0-0.2,0-0.2,0c-0.1,0-0.1,0-0.2,0
		c-3.6-0.1-6.8,0.1-9.6,0.6L1.5,4.6l6.4,28c-2,3.4-2.2,6.1-2.2,6.1l0.9,0.2c16.5,4.5,23.6,15,26.6,22.4c0.9,2.8,1.5,5.1,1.8,6.5l0,0
		l1.6,0l1.6,0c0.3-1.4,0.9-3.8,1.8-6.5c3-7.4,10.1-18,26.5-22.5c0,0,0.8-0.2,1-0.2c0,0-0.2-1.8-2.1-5.2L72.8,5.6z"/>
</g>
<g>
	<defs>
		<path id="SVGID_17_" d="M38.4,67.8C38.4,67.8,38.4,67.8,38.4,67.8C38.4,67.8,38.4,67.8,38.4,67.8 M38.4,67.8L38.4,67.8
			C38.4,67.8,38.4,67.8,38.4,67.8C38.4,67.8,38.4,67.8,38.4,67.8L38.4,67.8z"/>
	</defs>
	<clipPath id="SVGID_18_">
		<use xlink:href="#SVGID_17_"  style="overflow:visible;"/>
	</clipPath>
	
		<linearGradient id="SVGID_19_" gradientUnits="userSpaceOnUse" x1="-242.1024" y1="204.983" x2="-241.1024" y2="204.983" gradientTransform="matrix(0.5516 -79.9779 -79.9779 -0.5516 16565.9414 -19163.9473)">
		<stop  offset="0" style="stop-color:#FFEF25"/>
		<stop  offset="1.789650e-02" style="stop-color:#FFEA20"/>
		<stop  offset="0.102" style="stop-color:#FED70E"/>
		<stop  offset="0.1886" style="stop-color:#FDCC04"/>
		<stop  offset="0.2809" style="stop-color:#FDC800"/>
		<stop  offset="0.6685" style="stop-color:#F18F34"/>
		<stop  offset="0.8876" style="stop-color:#E85F31"/>
		<stop  offset="1" style="stop-color:#E32F2C"/>
	</linearGradient>
	<polygon class="st5" points="38.4,67.8 38.4,67.8 38.4,67.8 38.4,67.8 	"/>
</g>
<g>
	<defs>
		<path id="SVGID_20_" d="M38.5,67.8C38.5,67.8,38.4,67.8,38.5,67.8C38.4,67.8,38.5,67.8,38.5,67.8 M38.4,67.8
			C38.4,67.8,38.4,67.8,38.4,67.8C38.4,67.8,38.4,67.8,38.4,67.8z"/>
	</defs>
	<clipPath id="SVGID_21_">
		<use xlink:href="#SVGID_20_"  style="overflow:visible;"/>
	</clipPath>
	
		<linearGradient id="SVGID_22_" gradientUnits="userSpaceOnUse" x1="-242.1024" y1="204.983" x2="-241.1024" y2="204.983" gradientTransform="matrix(0.5516 -79.9779 -79.9779 -0.5516 16565.9707 -19163.9453)">
		<stop  offset="0" style="stop-color:#FFEF25"/>
		<stop  offset="1.789650e-02" style="stop-color:#FFEA20"/>
		<stop  offset="0.102" style="stop-color:#FED70E"/>
		<stop  offset="0.1886" style="stop-color:#FDCC04"/>
		<stop  offset="0.2809" style="stop-color:#FDC800"/>
		<stop  offset="0.6685" style="stop-color:#F18F34"/>
		<stop  offset="0.8876" style="stop-color:#E85F31"/>
		<stop  offset="1" style="stop-color:#E32F2C"/>
	</linearGradient>
	<polygon class="st6" points="38.4,67.8 38.4,67.8 38.5,67.8 38.5,67.8 	"/>
</g>
<g>
	<defs>
		<rect id="SVGID_23_" x="-8.3" y="-11.6" width="90.7" height="91.9"/>
	</defs>
	<clipPath id="SVGID_24_">
		<use xlink:href="#SVGID_23_"  style="overflow:visible;"/>
	</clipPath>
	<path class="st7" d="M35.1,67.8L35.1,67.8c0,0-3.1,2.8-1.7,4.2c2.1,1,4.5,1,6.6,0c1.3-1.3-1.3-3.9-1.6-4.2c0,0,0,0,0,0s0,0,0,0
		c0,0,0,0,0,0h0l-1.6,0L35.1,67.8z"/>
	<path class="st8" d="M23.5,44.4c0,1.9,1.5,3.4,3.4,3.4c1.9,0,3.4-1.5,3.4-3.4c0-1.9-1.5-3.4-3.4-3.4C25.1,41,23.6,42.5,23.5,44.4"
		/>
	<path class="st7" d="M25.1,44.5c0.1,1,1,1.8,2,1.8c1-0.1,1.8-1,1.8-2c-0.1-1-1-1.8-2-1.8C25.8,42.6,25,43.5,25.1,44.5"/>
	<path class="st9" d="M25.1,44.5c0.1,1,1,1.8,2,1.8c1-0.1,1.8-1,1.8-2c-0.1-1-1-1.8-2-1.8C25.8,42.6,25,43.5,25.1,44.5z"/>
	<path class="st8" d="M25.7,42.6c0,0.6,0.6,1.1,1.2,1.1c0.7,0,1.2-0.5,1.2-1.1c0-0.6-0.6-1.1-1.2-1.1C26.3,41.5,25.7,42,25.7,42.6"
		/>
	<path class="st8" d="M43.1,44.4c0,1.9,1.5,3.4,3.4,3.4c1.9,0,3.4-1.5,3.4-3.4c0-1.9-1.5-3.4-3.4-3.4C44.6,41,43.1,42.5,43.1,44.4"
		/>
	<path class="st7" d="M44.6,44.5c0.1,1,1,1.8,2,1.8c1-0.1,1.9-1,1.8-2c-0.1-1-1-1.8-2-1.8C45.3,42.6,44.5,43.5,44.6,44.5"/>
	<path class="st9" d="M44.6,44.5c0.1,1,1,1.8,2,1.8c1-0.1,1.9-1,1.8-2c-0.1-1-1-1.8-2-1.8C45.3,42.6,44.5,43.5,44.6,44.5z"/>
	<path class="st8" d="M45.2,42.6c0,0.6,0.6,1.1,1.2,1.1c0.7,0,1.2-0.5,1.2-1.1c0-0.6-0.6-1.1-1.2-1.1C45.8,41.5,45.2,42,45.2,42.6"
		/>
	<path class="st10" d="M10.9,30.1L6.7,11.7l15.5,9.9C22.2,21.6,15,23.6,10.9,30.1"/>
	<path class="st10" d="M63.1,30.3l4.6-18.2L52,21.6C52,21.6,59.1,23.7,63.1,30.3"/>
	<path class="st7" d="M47.8,37.6c-3.1,0-6.3,0-8,2.6c-0.7,1.1-1.9,1.7-3.1,1.7c-1.2,0-2.4-0.6-3.1-1.6c-1.8-2.5-5-2.5-8.1-2.5
		c-4.7,0-8.4,0.1-8.3,8.6c0,3.2,1.5,6.9,8.4,6.9c5.9,0,9.5-2.7,9.4-7v0c0-0.7,0.5-1.2,1.1-1.2l1.2,0c0.6,0,1.1,0.5,1.1,1.2v0
		c0,4.3,3.6,6.9,9.5,6.9c6.9,0,8.4-3.8,8.3-7C56.2,37.5,52.5,37.5,47.8,37.6 M25.6,51.3c-6,0-6.7-2.8-6.7-5c0-6.7,1.9-6.7,6.7-6.7
		c4.9,0,7.8-0.1,7.8,6.6C33.4,50.8,28,51.3,25.6,51.3 M47.9,51.2c-2.3,0-7.8-0.4-7.8-5c0-6.7,2.9-6.7,7.7-6.7c4.7,0,6.7,0,6.7,6.6
		C54.6,48.2,53.9,51.1,47.9,51.2"/>
	<path class="st11" d="M47.8,37.6c-3.1,0-6.3,0-8,2.6c-0.7,1.1-1.9,1.7-3.1,1.7c-1.2,0-2.4-0.6-3.1-1.6c-1.8-2.5-5-2.5-8.1-2.5
		c-4.7,0-8.4,0.1-8.3,8.6c0,3.2,1.5,6.9,8.4,6.9c5.9,0,9.5-2.7,9.4-7v0c0-0.7,0.5-1.2,1.1-1.2l1.2,0c0.6,0,1.1,0.5,1.1,1.2v0
		c0,4.3,3.6,6.9,9.5,6.9c6.9,0,8.4-3.8,8.3-7C56.2,37.5,52.5,37.5,47.8,37.6z M25.6,51.3c-6,0-6.7-2.8-6.7-5c0-6.7,1.9-6.7,6.7-6.7
		c4.9,0,7.8-0.1,7.8,6.6C33.4,50.8,28,51.3,25.6,51.3z M47.9,51.2c-2.3,0-7.8-0.4-7.8-5c0-6.7,2.9-6.7,7.7-6.7c4.7,0,6.7,0,6.7,6.6
		C54.6,48.2,53.9,51.1,47.9,51.2z"/>
</g>
</svg>
